<svg width="22" height="17" viewBox="0 0 22 17" fill="none" xmlns="http://www.w3.org/2000/svg">
<path d="M16.5 0C14.55 0 12.45 0.404688 11 1.51758C9.55 0.404688 7.45 0 5.5 0C4.05 0 2.51 0.222578 1.22 0.799259C0.49 1.13313 0 1.85145 0 2.67094V14.0831C0 15.3984 1.22 16.3696 2.48 16.0459C3.46 15.793 4.5 15.6817 5.5 15.6817C7.06 15.6817 8.72 15.9447 10.06 16.6125C10.66 16.916 11.34 16.916 11.93 16.6125C13.27 15.9346 14.93 15.6817 16.49 15.6817C17.49 15.6817 18.53 15.793 19.51 16.0459C20.77 16.3798 21.99 15.4085 21.99 14.0831V2.67094C21.99 1.85145 21.5 1.13313 20.77 0.799259C19.49 0.222578 17.95 0 16.5 0ZM20 12.8792C20 13.5166 19.42 13.982 18.8 13.8707C18.05 13.729 17.27 13.6683 16.5 13.6683C14.8 13.6683 12.35 14.326 11 15.1859V3.54102C12.35 2.68106 14.8 2.02344 16.5 2.02344C17.42 2.02344 18.33 2.1145 19.2 2.30672C19.66 2.4079 20 2.8227 20 3.29821V12.8792Z" fill="url(#paint0_linear_9_206)"/>
<path d="M12.9799 6.58618C12.6599 6.58618 12.3699 6.38382 12.2699 6.06005C12.1399 5.66545 12.3599 5.23038 12.7499 5.10896C14.2899 4.60306 16.2799 4.44118 18.1099 4.65365C18.5199 4.70424 18.8199 5.07861 18.7699 5.49344C18.7199 5.90828 18.3499 6.21182 17.9399 6.16123C16.3199 5.96899 14.5499 6.12076 13.2099 6.55583C13.1299 6.56595 13.0499 6.58618 12.9799 6.58618Z" fill="url(#paint1_linear_9_206)"/>
<path d="M12.9799 9.2771C12.6599 9.2771 12.3699 9.07478 12.2699 8.75106C12.1399 8.35653 12.3599 7.92154 12.7499 7.80015C14.2799 7.29434 16.2799 7.13248 18.1099 7.34492C18.5199 7.3955 18.8199 7.7698 18.7699 8.18456C18.7199 8.59932 18.3499 8.9028 17.9399 8.85222C16.3199 8.66002 14.5499 8.81176 13.2099 9.24675C13.1299 9.26698 13.0499 9.2771 12.9799 9.2771Z" fill="url(#paint2_linear_9_206)"/>
<path d="M12.9799 11.9688C12.6599 11.9688 12.3699 11.7664 12.2699 11.4426C12.1399 11.048 12.3599 10.6129 12.7499 10.4915C14.2799 9.98563 16.2799 9.82374 18.1099 10.0362C18.5199 10.0868 18.8199 10.4612 18.7699 10.876C18.7199 11.2908 18.3499 11.5843 17.9399 11.5438C16.3199 11.3516 14.5499 11.5033 13.2099 11.9384C13.1299 11.9586 13.0499 11.9688 12.9799 11.9688Z" fill="url(#paint3_linear_9_206)"/>
<defs>
<linearGradient id="paint0_linear_9_206" x1="10.995" y1="0" x2="10.995" y2="16.8401" gradientUnits="userSpaceOnUse">
<stop stop-color="#B6DCFF"/>
<stop offset="1" stop-color="#0D52AA"/>
</linearGradient>
<linearGradient id="paint1_linear_9_206" x1="15.5039" y1="4.5625" x2="15.5039" y2="6.58618" gradientUnits="userSpaceOnUse">
<stop stop-color="#B6DCFF"/>
<stop offset="1" stop-color="#0D52AA"/>
</linearGradient>
<linearGradient id="paint2_linear_9_206" x1="15.5039" y1="7.25378" x2="15.5039" y2="9.2771" gradientUnits="userSpaceOnUse">
<stop stop-color="#B6DCFF"/>
<stop offset="1" stop-color="#0D52AA"/>
</linearGradient>
<linearGradient id="paint3_linear_9_206" x1="15.5039" y1="9.94507" x2="15.5039" y2="11.9688" gradientUnits="userSpaceOnUse">
<stop stop-color="#B6DCFF"/>
<stop offset="1" stop-color="#0D52AA"/>
</linearGradient>
</defs>
</svg>
