<svg width="22" height="21" viewBox="0 0 22 21" fill="none" xmlns="http://www.w3.org/2000/svg">
<path d="M11.65 13.8302C11.79 13.466 11.7 13.0512 11.42 12.7679L9.32999 10.6838L9.35999 10.6534C11.1 8.69066 12.34 6.43453 13.07 4.04688H15.01C15.55 4.04688 16 3.5916 16 3.04527V3.02504C16 2.47871 15.55 2.02344 15.01 2.02344H8.99999V1.01172C8.99999 0.455273 8.54999 0 7.99999 0C7.44999 0 6.99999 0.455273 6.99999 1.01172V2.02344H0.989999C0.449999 2.02344 0 2.47871 0 3.02504C0 3.58148 0.449999 4.02664 0.989999 4.02664H11.17C10.5 5.98938 9.43999 7.84082 7.99999 9.45957C7.18999 8.55914 6.50999 7.57777 5.93999 6.54582C5.77999 6.25242 5.48999 6.07031 5.15999 6.07031C4.46999 6.07031 4.02999 6.8291 4.36999 7.43613C4.99999 8.57938 5.76999 9.67203 6.66999 10.6838L2.3 15.0443C1.9 15.4388 1.9 16.0863 2.3 16.4809C2.69 16.8755 3.32 16.8755 3.72 16.4809L7.99999 12.1406L10.02 14.1843C10.53 14.7003 11.4 14.508 11.65 13.8302ZM16.5 8.09375C15.9 8.09375 15.36 8.46809 15.15 9.04477L11.48 18.9596C11.24 19.5768 11.7 20.2344 12.35 20.2344C12.74 20.2344 13.09 19.9916 13.23 19.6172L14.12 17.1992H18.87L19.77 19.6172C19.91 19.9814 20.26 20.2344 20.65 20.2344C21.3 20.2344 21.76 19.5768 21.53 18.9596L17.86 9.04477C17.64 8.46809 17.1 8.09375 16.5 8.09375ZM14.88 15.1758L16.5 10.795L18.12 15.1758H14.88Z" fill="url(#paint0_linear_9_217)"/>
<defs>
<linearGradient id="paint0_linear_9_217" x1="10.795" y1="0" x2="10.795" y2="20.2344" gradientUnits="userSpaceOnUse">
<stop stop-color="#B6DCFF"/>
<stop offset="1" stop-color="#0D52AA"/>
</linearGradient>
</defs>
</svg>
