<svg width="324" height="48" viewBox="0 0 324 48" fill="none" xmlns="http://www.w3.org/2000/svg">
<path d="M11.6239 9.888C10.3439 9.888 9.27193 9.472 8.40793 8.64C7.54393 7.808 7.11193 6.752 7.11193 5.472C7.11193 4.224 7.54393 3.184 8.40793 2.352C9.27193 1.488 10.3439 1.056 11.6239 1.056C12.8719 1.056 13.9279 1.488 14.7919 2.352C15.6879 3.184 16.1359 4.224 16.1359 5.472C16.1359 6.72 15.6879 7.776 14.7919 8.64C13.9279 9.472 12.8719 9.888 11.6239 9.888ZM5.28793 47.088C3.39993 47.088 1.86393 46.816 0.679932 46.272V39.552C1.63993 40 2.72793 40.224 3.94393 40.224C6.24793 40.224 7.39993 39.056 7.39993 36.72V12.96H15.8479V37.728C15.8479 40.8 14.8719 43.12 12.9199 44.688C10.9999 46.288 8.45593 47.088 5.28793 47.088Z" fill="#141414"/>
<path d="M33.7204 36.72C30.8724 36.72 28.3764 36.208 26.2324 35.184C24.0884 34.128 22.4244 32.688 21.2404 30.864C20.0884 29.008 19.5124 26.88 19.5124 24.48C19.5124 22.08 20.0884 19.968 21.2404 18.144C22.4244 16.288 24.0884 14.848 26.2324 13.824C28.3764 12.768 30.8724 12.24 33.7204 12.24C36.5684 12.24 39.0644 12.768 41.2084 13.824C43.3524 14.848 45.0004 16.288 46.1524 18.144C47.3364 19.968 47.9284 22.08 47.9284 24.48C47.9284 26.88 47.3364 29.008 46.1524 30.864C45.0004 32.688 43.3524 34.128 41.2084 35.184C39.0644 36.208 36.5684 36.72 33.7204 36.72ZM33.7204 30.144C35.4164 30.144 36.7604 29.648 37.7524 28.656C38.7764 27.632 39.2884 26.24 39.2884 24.48C39.2884 22.72 38.7764 21.344 37.7524 20.352C36.7604 19.328 35.4164 18.816 33.7204 18.816C32.0244 18.816 30.6644 19.328 29.6404 20.352C28.6484 21.344 28.1524 22.72 28.1524 24.48C28.1524 26.24 28.6484 27.632 29.6404 28.656C30.6644 29.648 32.0244 30.144 33.7204 30.144Z" fill="#141414"/>
<path d="M59.9866 36.72C58.1306 36.72 56.1946 36.528 54.1786 36.144C52.1626 35.792 50.5626 35.28 49.3786 34.608V28.416C50.6906 29.184 52.2586 29.824 54.0826 30.336C55.9386 30.816 57.6346 31.056 59.1706 31.056C60.2906 31.056 61.1066 30.976 61.6186 30.816C62.1306 30.656 62.3866 30.336 62.3866 29.856C62.3866 29.472 62.2106 29.168 61.8586 28.944C61.5386 28.688 60.9306 28.432 60.0346 28.176C59.1706 27.888 58.1626 27.584 57.0106 27.264C55.0586 26.688 53.5226 26.096 52.4026 25.488C51.2826 24.88 50.4506 24.112 49.9066 23.184C49.3626 22.256 49.0906 21.088 49.0906 19.68C49.0906 17.184 50.0666 15.328 52.0186 14.112C54.0026 12.864 56.7066 12.24 60.1306 12.24C61.7946 12.24 63.5386 12.416 65.3626 12.768C67.2186 13.12 68.6106 13.584 69.5386 14.16V20.256C68.5786 19.616 67.2986 19.088 65.6986 18.672C64.1306 18.256 62.6586 18.048 61.2826 18.048C60.1946 18.048 59.3466 18.16 58.7386 18.384C58.1306 18.576 57.8266 18.928 57.8266 19.44C57.8266 19.92 58.1306 20.288 58.7386 20.544C59.3466 20.8 60.4346 21.12 62.0026 21.504C63.0266 21.76 63.4586 21.872 63.2986 21.84C65.3466 22.384 66.9306 22.992 68.0506 23.664C69.1706 24.336 69.9546 25.136 70.4026 26.064C70.8826 26.96 71.1226 28.112 71.1226 29.52C71.1226 31.728 70.1626 33.488 68.2426 34.8C66.3546 36.08 63.6026 36.72 59.9866 36.72Z" fill="#141414"/>
<path d="M78.9844 9.888C77.7044 9.888 76.6324 9.472 75.7684 8.64C74.9044 7.808 74.4724 6.752 74.4724 5.472C74.4724 4.224 74.9044 3.184 75.7684 2.352C76.6324 1.488 77.7044 1.056 78.9844 1.056C80.2324 1.056 81.2884 1.488 82.1524 2.352C83.0484 3.184 83.4964 4.224 83.4964 5.472C83.4964 6.72 83.0484 7.776 82.1524 8.64C81.2884 9.472 80.2324 9.888 78.9844 9.888ZM74.7604 12.96H83.2084V36H74.7604V12.96Z" fill="#141414"/>
<path d="M96.5198 36.72C93.6398 36.72 91.3038 36.032 89.5118 34.656C87.7518 33.248 86.8718 31.296 86.8718 28.8C86.8718 26.208 87.7198 24.224 89.4158 22.848C91.1438 21.44 93.6078 20.736 96.8078 20.736C98.0558 20.736 99.3038 20.88 100.552 21.168C101.8 21.424 102.872 21.776 103.768 22.224V21.744C103.768 19.28 101.752 18.048 97.7198 18.048C94.9038 18.048 92.3278 18.592 89.9918 19.68V13.872C91.0158 13.392 92.3598 13.008 94.0238 12.72C95.6878 12.4 97.4158 12.24 99.2078 12.24C103.496 12.24 106.728 13.104 108.904 14.832C111.112 16.528 112.216 18.912 112.216 21.984V36H104.296V34.032C103.432 34.864 102.344 35.52 101.032 36C99.7198 36.48 98.2158 36.72 96.5198 36.72ZM99.0158 31.536C100.008 31.536 100.936 31.344 101.8 30.96C102.664 30.544 103.32 30.016 103.768 29.376V27.36C102.392 26.432 100.824 25.968 99.0638 25.968C97.9438 25.968 97.0798 26.208 96.4718 26.688C95.8638 27.168 95.5598 27.872 95.5598 28.8C95.5598 29.664 95.8478 30.336 96.4238 30.816C97.0318 31.296 97.8958 31.536 99.0158 31.536Z" fill="#141414"/>
<path d="M125.518 36.72C123.662 36.72 121.726 36.528 119.71 36.144C117.694 35.792 116.094 35.28 114.91 34.608V28.416C116.222 29.184 117.79 29.824 119.614 30.336C121.47 30.816 123.166 31.056 124.702 31.056C125.822 31.056 126.638 30.976 127.15 30.816C127.662 30.656 127.918 30.336 127.918 29.856C127.918 29.472 127.742 29.168 127.39 28.944C127.07 28.688 126.462 28.432 125.566 28.176C124.702 27.888 123.694 27.584 122.542 27.264C120.59 26.688 119.054 26.096 117.934 25.488C116.814 24.88 115.982 24.112 115.438 23.184C114.894 22.256 114.622 21.088 114.622 19.68C114.622 17.184 115.598 15.328 117.55 14.112C119.534 12.864 122.238 12.24 125.662 12.24C127.326 12.24 129.07 12.416 130.894 12.768C132.75 13.12 134.142 13.584 135.07 14.16V20.256C134.11 19.616 132.83 19.088 131.23 18.672C129.662 18.256 128.19 18.048 126.814 18.048C125.726 18.048 124.878 18.16 124.27 18.384C123.662 18.576 123.358 18.928 123.358 19.44C123.358 19.92 123.662 20.288 124.27 20.544C124.878 20.8 125.966 21.12 127.534 21.504C128.558 21.76 128.99 21.872 128.83 21.84C130.878 22.384 132.462 22.992 133.582 23.664C134.702 24.336 135.486 25.136 135.934 26.064C136.414 26.96 136.654 28.112 136.654 29.52C136.654 31.728 135.694 33.488 133.774 34.8C131.886 36.08 129.134 36.72 125.518 36.72Z" fill="#141414"/>
<path d="M151.284 36.72C148.884 36.72 146.756 36.224 144.9 35.232C143.044 34.208 141.604 32.784 140.58 30.96C139.556 29.104 139.044 26.96 139.044 24.528C139.044 22.128 139.556 20 140.58 18.144C141.604 16.256 143.028 14.8 144.852 13.776C146.708 12.752 148.852 12.24 151.284 12.24C152.884 12.24 154.356 12.464 155.7 12.912C157.044 13.36 158.196 14 159.156 14.832V0.528H167.604V36H159.444V33.696C157.3 35.712 154.58 36.72 151.284 36.72ZM153.492 30.192C154.772 30.192 155.924 29.872 156.948 29.232C157.972 28.56 158.708 27.664 159.156 26.544V22.464C158.708 21.344 157.972 20.464 156.948 19.824C155.924 19.152 154.772 18.816 153.492 18.816C151.764 18.816 150.372 19.328 149.316 20.352C148.26 21.376 147.732 22.768 147.732 24.528C147.732 26.288 148.26 27.68 149.316 28.704C150.372 29.696 151.764 30.192 153.492 30.192Z" fill="#141414"/>
<path d="M185.462 36.72C180.95 36.72 177.398 35.664 174.806 33.552C172.246 31.44 170.966 28.448 170.966 24.576C170.966 20.768 172.102 17.76 174.374 15.552C176.678 13.344 179.99 12.24 184.31 12.24C187.062 12.24 189.414 12.768 191.366 13.824C193.35 14.848 194.838 16.272 195.83 18.096C196.854 19.888 197.366 21.92 197.366 24.192V27.312H178.982C179.302 28.592 180.102 29.52 181.382 30.096C182.662 30.672 184.406 30.96 186.614 30.96C188.118 30.96 189.654 30.832 191.222 30.576C192.822 30.32 194.198 29.968 195.35 29.52V35.088C194.166 35.568 192.678 35.952 190.886 36.24C189.126 36.56 187.318 36.72 185.462 36.72ZM189.398 22.032C189.27 20.784 188.758 19.808 187.862 19.104C186.966 18.4 185.734 18.048 184.166 18.048C182.63 18.048 181.414 18.416 180.518 19.152C179.622 19.856 179.11 20.816 178.982 22.032H189.398Z" fill="#141414"/>
<path d="M197.122 12.96H205.57L210.802 26.352L215.986 12.96H224.434L214.786 36H206.77L197.122 12.96Z" fill="#141414"/>
<path d="M224.684 12.96H233.132L236.828 26.16L240.524 12.96H247.34L251.036 26.16L254.732 12.96H263.18L255.452 36H247.868L243.932 23.04L239.996 36H232.412L224.684 12.96Z" fill="#141414"/>
<path d="M280.055 36.72C275.543 36.72 271.991 35.664 269.399 33.552C266.839 31.44 265.559 28.448 265.559 24.576C265.559 20.768 266.695 17.76 268.967 15.552C271.271 13.344 274.583 12.24 278.903 12.24C281.655 12.24 284.007 12.768 285.959 13.824C287.943 14.848 289.431 16.272 290.423 18.096C291.447 19.888 291.959 21.92 291.959 24.192V27.312H273.575C273.895 28.592 274.695 29.52 275.975 30.096C277.255 30.672 278.999 30.96 281.207 30.96C282.711 30.96 284.247 30.832 285.815 30.576C287.415 30.32 288.791 29.968 289.943 29.52V35.088C288.759 35.568 287.271 35.952 285.479 36.24C283.719 36.56 281.911 36.72 280.055 36.72ZM283.991 22.032C283.863 20.784 283.351 19.808 282.455 19.104C281.559 18.4 280.327 18.048 278.759 18.048C277.223 18.048 276.007 18.416 275.111 19.152C274.215 19.856 273.703 20.816 273.575 22.032H283.991Z" fill="#141414"/>
<path d="M311.621 36.72C308.325 36.72 305.605 35.712 303.461 33.696V36H295.301V0.528H303.749V14.832C304.677 14.032 305.829 13.408 307.205 12.96C308.613 12.48 310.085 12.24 311.621 12.24C314.053 12.24 316.181 12.752 318.005 13.776C319.861 14.8 321.301 16.256 322.325 18.144C323.349 20 323.861 22.128 323.861 24.528C323.861 26.96 323.349 29.104 322.325 30.96C321.301 32.784 319.861 34.208 318.005 35.232C316.149 36.224 314.021 36.72 311.621 36.72ZM309.413 30.192C311.141 30.192 312.533 29.696 313.589 28.704C314.645 27.68 315.173 26.288 315.173 24.528C315.173 22.768 314.645 21.376 313.589 20.352C312.533 19.328 311.141 18.816 309.413 18.816C308.133 18.816 306.981 19.152 305.957 19.824C304.933 20.464 304.197 21.344 303.749 22.464V26.544C304.197 27.664 304.933 28.56 305.957 29.232C306.981 29.872 308.133 30.192 309.413 30.192Z" fill="#141414"/>
</svg>
